PathFileType	4	(X/Y/Z)	D:\TRACE\spotREDO_2-26-24\spot_Both_Motion_3_9-v60.trc
DataRate	CameraRate	NumFrames	NumMarkers	Units	OrigDataRate	OrigDataStartFrame	OrigNumFrames
100.00	100.00	      21	9	mm	100.00	2626	      7000
Frame#	Time	front left toe			Front right toe			aft left toe			aft right toe			Arm			FL body			FR body			AL Body			AR Body			
		X1	Y1	Z1	X2	Y2	Z2	X3	Y3	Z3	X4	Y4	Z4	X5	Y5	Z5	X6	Y6	Z6	X7	Y7	Z7	X8	Y8	Z8	X9	Y9	Z9	

2626	26.250	-188.30681	72.74391	-436.25653	254.04195	72.05229	-452.29642	-148.64464	6.24401	152.06300	267.59085	14.50602	122.69836	56.55526	801.66980	-745.29926	-53.76628	660.52252	-528.98230	101.64212	666.45734	-536.47156	-13.80815	548.53467	347.09070	133.65410	543.11755	341.56647	
2627	26.260	-188.33060	72.63165	-436.41241	253.98157	71.84545	-452.50287	-148.74248	6.33113	151.96437	267.56671	14.63055	122.65182	56.64477	801.50079	-745.32355	-53.76242	660.60162	-528.90082	101.55224	666.71912	-536.39026	-13.92870	548.59814	347.11548	133.61292	543.23358	341.58057	
2628	26.270	-188.49864	72.53914	-436.48270	253.96526	71.40575	-452.73401	-148.83455	6.37092	151.68530	267.49860	14.67794	122.53549	56.71268	801.25433	-745.29803	-53.74540	660.68604	-528.82410	101.51492	666.85730	-536.39667	-13.91892	548.62048	347.09894	133.56319	543.28821	341.56500	
2629	26.280	-188.47304	72.47234	-436.44055	253.53049	71.12493	-453.02286	-148.84966	6.43943	151.88551	267.34299	14.65321	122.52482	56.77997	801.09521	-745.26117	-52.89656	660.48456	-528.94086	101.49626	666.90991	-536.38348	-13.99999	548.66504	347.09302	133.45354	543.33807	341.56311	
2630	26.290	-188.62994	72.30102	-436.48569	253.38611	70.92017	-453.03229	-149.00761	6.48972	151.61647	267.10825	14.59224	122.36468	56.78972	800.93604	-745.28619	-53.80839	660.81842	-528.78760	101.48099	666.92181	-536.39667	-14.10977	548.73407	347.06326	133.37273	543.31390	341.51874	
2631	26.300	-188.71234	72.07407	-436.61926	253.33159	70.92895	-453.12869	-149.14026	6.56103	151.79030	267.02890	14.65240	122.31676	56.80601	800.83246	-745.33746	-53.83231	660.81268	-528.81323	101.40019	666.88562	-536.47626	-14.14793	548.80713	347.02347	133.33298	543.31415	341.44995	
2632	26.310	-188.77367	71.84164	-436.88419	253.19559	70.70360	-453.23270	-149.25121	6.66987	151.78557	267.00632	14.70243	122.33091	56.75779	800.83942	-745.39038	-53.85525	660.77924	-528.88330	101.31639	666.80756	-536.58533	-14.27864	548.93018	346.95236	133.21719	543.39423	341.38373	
2633	26.320	-188.77138	71.58580	-436.83920	253.27919	70.58257	-453.17929	-149.43990	6.62819	151.79419	266.96460	14.76120	122.30244	56.66540	800.77289	-745.43134	-53.90755	660.73041	-528.97003	101.25636	666.73645	-536.66010	-14.38801	548.98627	346.93997	133.12846	543.47186	341.34793	
2634	26.330	-188.78542	71.29563	-436.93814	253.19563	70.50268	-453.22208	-149.50020	6.59343	151.71796	266.92163	14.82575	122.28511	56.58794	800.70117	-745.53784	-53.94754	660.68573	-529.01990	101.20029	666.67065	-536.75690	-14.44137	549.02032	346.92297	133.01575	543.46368	341.23447	
2635	26.340	-189.01535	71.29353	-437.05817	253.12592	70.39967	-453.19318	-149.68410	6.61029	151.70285	266.75806	14.81609	122.19421	56.35033	800.72919	-745.66150	-54.00296	660.62115	-529.08582	101.15877	666.62396	-536.84418	-14.54797	549.04474	346.89386	132.83548	543.50299	341.12216	
2636	26.350	-189.25780	71.29131	-437.14005	253.05231	70.19086	-453.19861	-149.90628	6.70007	151.65260	266.51181	14.88419	122.12486	56.27669	800.73114	-745.74408	-54.10858	660.57562	-529.10651	101.08470	666.55548	-536.91833	-14.64215	549.11621	346.87222	132.72859	543.58447	341.03421	
2637	26.360	-189.40883	71.16296	-437.19064	252.82410	69.96154	-453.27219	-150.16003	6.75129	151.34619	266.21274	14.95107	122.08163	56.02152	800.72302	-745.88165	-54.15800	660.52679	-529.19257	101.08482	666.44568	-537.00250	-14.72122	549.18506	346.80215	132.71404	543.64380	340.93417	
2638	26.370	-189.68867	71.00101	-437.20267	252.53305	69.77376	-453.25555	-150.29930	6.87331	151.59811	266.02332	15.02455	122.05610	55.93515	800.74829	-745.97461	-54.31771	660.48480	-529.24365	101.00936	666.33893	-537.12823	-14.79637	549.23700	346.69427	132.67531	543.68097	340.60104	
2639	26.380	-189.96805	70.76220	-437.33862	252.36958	69.55073	-453.33868	-150.42610	6.82494	151.65070	265.85812	15.06671	122.05363	55.69267	800.66681	-746.05804	-55.23121	661.06165	-530.12390	100.80899	666.17029	-537.28992	-14.79781	549.31879	346.58829	132.69215	543.82806	340.76483	
2640	26.390	-190.03085	70.52882	-437.32843	252.31108	69.41801	-453.37778	-150.57553	6.87335	151.44002	265.60733	15.12027	122.05090	55.38564	800.59589	-746.22833	-55.46434	660.98138	-530.30939	100.66744	666.05017	-537.39410	-14.87345	549.41333	346.47180	132.63748	543.80713	340.56613	
2641	26.400	-190.18315	70.28397	-437.43381	251.87273	69.20358	-453.64441	-150.65041	6.91686	151.42365	265.46506	15.15025	122.02164	55.10313	800.45471	-746.27954	-55.04029	660.49573	-529.82782	100.64415	665.71210	-537.64630	-14.92184	549.44891	346.33182	132.54128	543.86493	340.50467	
2642	26.410	-190.34863	70.19313	-437.55481	251.57236	69.09142	-453.80164	-150.77893	6.94958	151.40182	265.37183	15.22147	122.10342	54.95161	800.37671	-746.33698	-55.16885	660.47675	-529.95068	100.23450	665.64178	-537.86127	-14.99842	549.55933	346.18799	132.44052	543.99707	340.51730	
2643	26.420	-190.48141	70.13600	-437.66470	251.51616	68.80669	-453.87070	-151.04686	7.13351	151.53395	265.29190	15.23802	122.07104	54.88085	800.24323	-746.31110	-55.33836	660.32623	-529.96405	100.08131	665.61377	-538.01196	-15.07102	549.65808	346.04355	132.32928	544.07227	340.50540	
2644	26.430	-190.77087	70.11035	-437.79068	251.19975	68.70451	-453.98062	-151.25507	7.27802	151.43187	265.01099	15.21483	121.97379	54.82705	800.19324	-746.29901	-55.39252	660.09106	-530.03693	100.02678	665.53156	-538.09802	-15.23479	549.78052	345.92834	132.19366	544.18896	340.48053	
2645	26.440	-191.08873	70.04136	-438.01495	250.93259	68.62959	-454.12579	-151.54958	7.41437	151.06467	264.78223	15.21389	121.79518	54.80132	800.11932	-746.26123	-55.58203	659.89899	-530.09863	99.76285	665.62048	-538.03223	-15.34495	549.86627	345.80731	132.00484	544.33020	340.41635	
2646	26.450	-191.35841	70.00857	-438.09628	250.84084	68.35777	-454.08087	-151.75450	7.44575	151.19978	264.54657	15.24325	121.75087	54.71784	800.01617	-746.24280	-55.75171	659.79926	-530.26825	99.62642	665.45953	-538.11487	-15.50443	549.97046	345.65872	131.82205	544.38129	340.13837	
